<?xml version="1.0" encoding="UTF-8" ?>
<!DOCTYPE svg PUBLIC "-//W3C//DTD SVG 1.1//EN" "http://www.w3.org/Graphics/SVG/1.1/DTD/svg11.dtd">
<svg width="442pt" height="448pt" viewBox="0 0 442 448" version="1.1" xmlns="http://www.w3.org/2000/svg">
<g id="#ffd9d8ff">
<path fill="#ffd9d8" opacity="1.00" d=" M 204.44 16.54 C 240.19 13.97 276.61 20.61 309.03 35.95 C 340.87 50.91 368.83 74.01 389.55 102.44 C 412.28 133.41 426.20 170.76 429.28 209.06 C 433.43 257.29 420.24 306.78 392.49 346.46 C 369.60 379.49 337.08 405.76 299.92 421.08 C 245.57 443.79 181.64 442.10 128.62 416.41 C 97.11 401.34 69.50 378.27 49.02 349.98 C 26.00 318.34 12.09 280.14 9.51 241.08 C 6.79 202.50 14.89 163.18 32.96 128.97 C 53.19 90.03 86.04 57.84 125.27 38.24 C 149.88 25.86 176.96 18.47 204.44 16.54 M 129.95 65.86 C 131.28 73.84 130.76 81.97 131.75 89.99 C 132.35 112.65 131.93 135.33 132.06 158.00 C 131.93 186.02 132.34 214.05 131.77 242.06 C 131.00 249.92 130.85 257.81 130.17 265.68 C 139.30 266.09 148.47 266.01 157.61 265.72 C 157.16 259.12 157.02 252.49 156.36 245.91 C 155.50 226.28 155.91 206.63 155.82 187.00 C 155.92 182.42 155.46 177.81 156.18 173.27 C 166.53 172.40 176.95 173.53 187.30 172.57 C 204.70 171.87 222.75 169.11 237.82 159.86 C 250.47 152.20 258.16 137.63 258.34 122.96 C 258.75 114.19 258.08 105.11 254.02 97.16 C 248.99 85.93 238.72 77.87 227.44 73.48 C 209.83 66.74 190.68 65.59 172.00 65.75 C 157.98 65.84 143.97 65.63 129.95 65.86 M 219.08 189.08 C 204.09 201.68 203.13 225.69 213.58 241.44 C 221.63 252.95 233.00 261.51 243.98 270.05 C 259.95 282.02 275.98 293.93 291.47 306.53 C 301.13 314.83 311.40 323.81 315.56 336.27 C 318.66 347.98 316.69 361.41 308.99 370.97 C 301.07 380.56 288.04 384.30 276.00 383.98 C 263.91 384.26 252.09 379.69 242.57 372.42 C 237.16 367.52 231.78 362.43 227.92 356.18 C 219.51 343.50 215.44 328.59 213.04 313.73 C 206.83 316.83 200.58 319.85 194.41 323.01 C 200.31 340.41 209.42 357.33 223.45 369.53 C 233.39 378.39 246.03 383.95 259.13 386.07 C 273.61 388.42 288.98 387.78 302.53 381.75 C 315.60 376.51 325.78 364.69 328.90 350.94 C 331.38 340.22 331.14 328.57 326.82 318.33 C 322.48 307.81 314.47 299.41 306.36 291.65 C 287.99 276.14 268.25 262.38 248.98 248.03 C 239.29 240.63 228.82 233.23 223.03 222.17 C 219.64 214.36 219.17 205.15 222.41 197.21 C 226.55 188.68 235.20 183.17 244.41 181.61 C 257.50 179.67 271.85 181.17 282.73 189.29 C 295.63 198.99 301.83 214.85 304.95 230.18 C 311.31 228.08 317.50 225.50 323.83 223.30 C 323.44 222.35 323.08 221.39 322.57 220.51 C 317.70 212.87 312.64 205.25 306.14 198.88 C 293.66 185.39 275.41 177.27 256.99 177.59 C 243.62 177.26 229.59 180.45 219.08 189.08 Z" />
<path fill="#ffd9d8" opacity="1.00" d=" M 155.84 71.01 C 155.50 69.07 157.84 69.31 159.05 69.24 C 173.43 69.39 188.25 68.30 202.10 72.98 C 213.49 76.42 223.70 84.27 228.76 95.19 C 230.51 99.95 232.47 104.77 232.80 109.89 C 234.03 119.91 233.73 130.42 230.05 139.92 C 226.15 151.94 215.72 161.08 203.93 165.09 C 188.66 170.61 172.13 169.38 156.19 169.53 C 155.70 166.38 155.76 163.18 155.80 160.00 C 155.86 130.34 155.76 100.67 155.84 71.01 Z" />
</g>
<g id="#3d1049ff">
<path fill="#3d1049" opacity="1.00" d=" M 129.95 65.86 C 143.97 65.63 157.98 65.84 172.00 65.75 C 190.68 65.59 209.83 66.74 227.44 73.48 C 238.72 77.87 248.99 85.93 254.02 97.16 C 258.08 105.11 258.75 114.19 258.34 122.96 C 258.16 137.63 250.47 152.20 237.82 159.86 C 222.75 169.11 204.70 171.87 187.30 172.57 C 176.95 173.53 166.53 172.40 156.18 173.27 C 155.46 177.81 155.92 182.42 155.82 187.00 C 155.91 206.63 155.50 226.28 156.36 245.91 C 157.02 252.49 157.16 259.12 157.61 265.72 C 148.47 266.01 139.30 266.09 130.17 265.68 C 130.85 257.81 131.00 249.92 131.77 242.06 C 132.34 214.05 131.93 186.02 132.06 158.00 C 131.93 135.33 132.35 112.65 131.75 89.99 C 130.76 81.97 131.28 73.84 129.95 65.86 M 155.84 71.01 C 155.76 100.67 155.86 130.34 155.80 160.00 C 155.76 163.18 155.70 166.38 156.19 169.53 C 172.13 169.38 188.66 170.61 203.93 165.09 C 215.72 161.08 226.15 151.94 230.05 139.92 C 233.73 130.42 234.03 119.91 232.80 109.89 C 232.47 104.77 230.51 99.95 228.76 95.19 C 223.70 84.27 213.49 76.42 202.10 72.98 C 188.25 68.30 173.43 69.39 159.05 69.24 C 157.84 69.31 155.50 69.07 155.84 71.01 Z" />
<path fill="#3d1049" opacity="1.00" d=" M 219.08 189.08 C 229.59 180.45 243.62 177.26 256.99 177.59 C 275.41 177.27 293.66 185.39 306.14 198.88 C 312.64 205.25 317.70 212.87 322.57 220.51 C 323.08 221.39 323.44 222.35 323.83 223.30 C 317.50 225.50 311.31 228.08 304.95 230.18 C 301.83 214.85 295.63 198.99 282.73 189.29 C 271.85 181.17 257.50 179.67 244.41 181.61 C 235.20 183.17 226.55 188.68 222.41 197.21 C 219.17 205.15 219.64 214.36 223.03 222.17 C 228.82 233.23 239.29 240.63 248.98 248.03 C 268.25 262.38 287.99 276.14 306.36 291.65 C 314.47 299.41 322.48 307.81 326.82 318.33 C 331.14 328.57 331.38 340.22 328.90 350.94 C 325.78 364.69 315.60 376.51 302.53 381.75 C 288.98 387.78 273.61 388.42 259.13 386.07 C 246.03 383.95 233.39 378.39 223.45 369.53 C 209.42 357.33 200.31 340.41 194.41 323.01 C 200.58 319.85 206.83 316.83 213.04 313.73 C 215.44 328.59 219.51 343.50 227.92 356.18 C 231.78 362.43 237.16 367.52 242.57 372.42 C 252.09 379.69 263.91 384.26 276.00 383.98 C 288.04 384.30 301.07 380.56 308.99 370.97 C 316.69 361.41 318.66 347.98 315.56 336.27 C 311.40 323.81 301.13 314.83 291.47 306.53 C 275.98 293.93 259.95 282.02 243.98 270.05 C 233.00 261.51 221.63 252.95 213.58 241.44 C 203.13 225.69 204.09 201.68 219.08 189.08 Z" />
</g>
</svg>
