<?xml version="1.0" encoding="UTF-8" ?>
<!DOCTYPE svg PUBLIC "-//W3C//DTD SVG 1.1//EN" "http://www.w3.org/Graphics/SVG/1.1/DTD/svg11.dtd">
<svg width="232pt" height="352pt" viewBox="0 0 232 352" version="1.1" xmlns="http://www.w3.org/2000/svg">
<g id="#3d1049ff">
<path fill="#3d1049" opacity="1.00" d=" M 17.71 13.67 C 36.47 13.54 55.23 13.50 73.99 13.71 C 92.18 14.75 111.20 17.23 126.87 27.25 C 133.42 32.42 139.53 38.61 142.73 46.46 C 146.59 54.37 146.86 63.34 146.47 71.96 C 145.94 86.61 137.91 100.90 125.18 108.33 C 110.00 117.46 91.92 120.13 74.49 120.78 C 64.40 121.89 54.18 120.37 44.13 121.75 C 44.23 145.48 43.84 169.23 44.50 192.97 C 45.40 199.90 45.23 206.90 45.77 213.86 C 37.22 214.31 28.63 214.19 20.08 214.03 C 16.58 214.01 18.37 209.81 18.40 207.70 C 18.95 197.47 19.96 187.27 19.82 177.01 C 19.90 135.67 19.87 94.33 19.84 52.99 C 19.75 46.30 19.91 39.59 19.05 32.93 C 18.74 26.50 18.81 20.04 17.71 13.67 M 44.22 17.85 C 44.31 50.49 44.15 83.12 44.29 115.75 C 44.03 117.68 46.80 116.97 47.94 117.23 C 57.80 117.18 67.71 117.47 77.52 116.22 C 88.38 114.76 99.42 111.16 107.54 103.52 C 114.85 96.98 118.95 87.52 120.33 77.95 C 122.07 65.48 121.18 52.14 115.20 40.86 C 109.59 30.30 98.78 23.44 87.44 20.47 C 73.36 16.72 58.63 17.55 44.22 17.85 Z" />
<path fill="#3d1049" opacity="1.00" d=" M 107.03 137.00 C 117.60 128.45 131.58 125.04 144.99 125.45 C 160.11 125.13 175.07 130.70 186.88 140.04 C 193.86 146.12 200.31 152.88 205.48 160.59 C 207.63 163.98 210.46 167.02 211.84 170.84 C 211.08 171.86 209.70 172.08 208.62 172.62 C 203.35 174.53 198.13 176.55 192.81 178.31 C 189.87 163.39 183.97 148.08 171.87 138.20 C 160.64 129.27 145.37 127.74 131.62 129.88 C 122.69 131.50 114.63 137.12 110.53 145.27 C 107.37 153.18 107.87 162.31 111.12 170.10 C 116.80 181.22 127.33 188.56 137.00 195.95 C 156.30 210.29 175.97 224.15 194.50 239.49 C 203.37 248.31 212.44 257.80 216.30 270.00 C 222.06 288.39 217.37 310.59 202.02 323.03 C 190.82 331.87 176.11 335.60 162.00 335.47 C 142.88 335.57 123.14 329.27 109.39 315.61 C 96.27 303.69 87.93 287.46 82.16 270.92 C 88.54 267.86 94.82 264.60 101.20 261.54 C 103.74 278.33 108.82 295.18 119.25 308.84 C 127.61 318.80 138.40 327.38 151.28 330.42 C 160.94 332.44 171.25 332.56 180.72 329.51 C 189.85 326.45 198.24 319.97 201.75 310.77 C 206.15 299.56 206.22 285.86 199.31 275.61 C 191.58 263.24 179.40 254.75 168.32 245.64 C 156.43 236.56 144.56 227.46 132.56 218.52 C 124.04 212.11 115.58 205.52 108.36 197.62 C 99.77 189.52 94.21 177.92 94.54 166.00 C 94.25 155.15 98.53 143.98 107.03 137.00 Z" />
</g>
</svg>
